<svg xmlns="http://www.w3.org/2000/svg" width="192" height="192" viewBox="0 0 192 192">
  <rect width="192" height="192" rx="32" fill="#f97316"/>
  <path d="M96 40c-30.928 0-56 25.072-56 56 0 30.928 25.072 56 56 56s56-25.072 56-56c0-30.928-25.072-56-56-56zm0 16c22.091 0 40 17.909 40 40s-17.909 40-40 40-40-17.909-40-40 17.909-40 40-40z" fill="white"/>
  <path d="M96 72c-13.255 0-24 10.745-24 24s10.745 24 24 24 24-10.745 24-24-10.745-24-24-24zm0 16c4.418 0 8 3.582 8 8s-3.582 8-8 8-8-3.582-8-8 3.582-8 8-8z" fill="white"/>
  <path d="M76 140h40v12H76z" fill="white"/>
</svg>

